<svg id="Слой_1" data-name="Слой 1" xmlns="http://www.w3.org/2000/svg" viewBox="0 0 45.35534 45.35534"><defs><style>.cls-1{fill:#fff;}</style></defs><path class="cls-1" d="M216.35955,138.24719h0a5,5,0,0,1,5,5v50a5,5,0,0,1-5,5h0a5,5,0,0,1-5-5v-50A5,5,0,0,1,216.35955,138.24719Z" transform="translate(-11.3429 -249.28036) rotate(45)"/><path class="cls-1" d="M216.35955,138.24719h0a5,5,0,0,1,5,5v50a5,5,0,0,1-5,5h0a5,5,0,0,1-5-5v-50A5,5,0,0,1,216.35955,138.24719Z" transform="translate(-249.28036 56.69825) rotate(-45)"/></svg>