<?xml version="1.0" encoding="utf-8"?>
<!-- Generator: Adobe Illustrator 26.0.1, SVG Export Plug-In . SVG Version: 6.00 Build 0)  -->
<svg version="1.1" xmlns="http://www.w3.org/2000/svg" xmlns:xlink="http://www.w3.org/1999/xlink" x="0px" y="0px"
	 viewBox="0 0 595.28 595.28" style="enable-background:new 0 0 595.28 595.28;" xml:space="preserve">
<style type="text/css">
	.st0{display:none;}
	.st1{display:inline;stroke:#FFF;stroke-miterlimit:10;}
	.st2{display:inline;stroke:#FFF;stroke-width:0.7607;stroke-miterlimit:10;}
	.st3{stroke:#FFF;stroke-width:2.118;stroke-miterlimit:10;fill:#FFF;}
	.st4{display:none;stroke:#FFF;stroke-width:1.7124;stroke-miterlimit:10;}
</style>
<g id="Слой_1" class="st0">
	<circle class="st1" cx="297.64" cy="297.64" r="182.32"/>
	<circle class="st2" cx="297.64" cy="297.64" r="182.32"/>
</g>
<g id="Слой_2">
</g>
<g id="Слой_3">
	<path class="st3" d="M385.06,96.71c-52.14,0-99.63,19.85-135.34,52.41c-11.73,10.69-22.18,22.75-31.1,35.93
		c1.26,2.76,3.03,5.36,5.31,7.63l28.66,28.66l50.2,50.19H35.43c-7.23,0-13.75,2.92-18.47,7.65c-4.75,4.72-7.67,11.26-7.67,18.47
		c0,14.42,11.71,26.11,26.14,26.11h267.36l-78.86,78.86c-2.28,2.27-4.04,4.86-5.3,7.63c8.92,13.17,19.37,25.23,31.09,35.91
		c35.71,32.56,83.2,52.41,135.34,52.41c110.96,0,200.92-89.96,200.92-200.92C585.98,186.67,496.02,96.71,385.06,96.71z
		 M385.06,450.5c-37.7,0-72.21-13.65-98.86-36.28l98.11-98.11c0.95-0.95,1.82-1.97,2.6-3.02c0.45-0.62,0.87-1.25,1.27-1.91
		c0.22-0.36,0.43-0.72,0.62-1.08c0.21-0.38,0.4-0.74,0.57-1.12c0.19-0.38,0.36-0.77,0.53-1.17c0.17-0.4,0.32-0.78,0.47-1.18
		c0.06-0.19,0.12-0.39,0.19-0.58c0.12-0.31,0.23-0.63,0.31-0.97c0.09-0.3,0.17-0.61,0.26-0.91c0.08-0.3,0.15-0.59,0.21-0.89
		c0.04-0.21,0.09-0.42,0.13-0.64c0.08-0.42,0.17-0.82,0.21-1.25c0.06-0.4,0.11-0.82,0.15-1.25c0.02-0.16,0.04-0.33,0.04-0.5
		c0.06-0.66,0.08-1.32,0.08-1.99c0-0.68-0.02-1.34-0.08-2c0-0.17-0.02-0.33-0.04-0.5c-0.04-0.43-0.09-0.85-0.15-1.25
		c-0.04-0.43-0.13-0.83-0.21-1.25c-0.04-0.22-0.09-0.43-0.13-0.64c-0.06-0.3-0.13-0.59-0.21-0.89c-0.09-0.29-0.17-0.61-0.26-0.91
		c-0.08-0.34-0.19-0.66-0.31-0.97c-0.07-0.19-0.13-0.38-0.19-0.58c-0.15-0.4-0.3-0.78-0.47-1.18c-0.17-0.38-0.34-0.79-0.53-1.17
		c-0.17-0.38-0.36-0.74-0.57-1.12c-0.19-0.36-0.4-0.72-0.62-1.08c-0.4-0.66-0.82-1.29-1.27-1.91c-0.78-1.05-1.65-2.07-2.6-3.02
		l-98.12-98.12c26.66-22.62,61.17-36.27,98.87-36.27c84.41,0,152.85,68.44,152.85,152.86C537.91,382.06,469.47,450.5,385.06,450.5z
		 M365.84,323.76c0.85,0,1.67-0.04,2.5-0.11c-0.83,0.09-1.67,0.13-2.5,0.13c-0.42,0-0.83,0-1.25-0.02H365.84z M364.59,271.53
		c0.82-0.03,1.63-0.01,2.45,0.03c-0.39-0.02-0.79-0.03-1.2-0.03H364.59z"/>
	<path class="st4" d="M271.18,315.27"/>
</g>
</svg>
