<?xml version="1.0" encoding="utf-8"?>
<!-- Generator: Adobe Illustrator 26.0.1, SVG Export Plug-In . SVG Version: 6.00 Build 0)  -->
<svg version="1.1" id="Слой_1" xmlns="http://www.w3.org/2000/svg" xmlns:xlink="http://www.w3.org/1999/xlink" x="0px" y="0px"
	 viewBox="0 0 595.28 595.28" style="enable-background:new 0 0 595.28 595.28;" xml:space="preserve">
<style type="text/css">
	.st0{fill:#FFFFFF;}
	.st1{display:none;fill:#FFFFFF;}
	.st2{display:none;}
	.st3{display:inline;}
	.st4{display:inline;fill:#604B3B;}
</style>
<path class="st0" d="M297.64,7.1C137.18,7.1,7.1,137.18,7.1,297.64s130.08,290.53,290.54,290.53S588.17,458.1,588.17,297.64
	S458.1,7.1,297.64,7.1z M299.67,398.51c0,4.37-1.4,8.04-4.18,11.03c-2.78,2.97-6.45,4.46-11.02,4.46c-4.37,0-8.05-1.49-11.03-4.46
	c-2.98-2.99-4.47-6.66-4.47-11.03v-88.8H130.7v88.8c0,4.37-1.44,8.04-4.32,11.03c-2.88,2.97-6.61,4.46-11.18,4.46
	c-4.37,0-8.04-1.49-11.02-4.46c-2.98-2.99-4.47-6.66-4.47-11.03V196.76c0-4.56,1.49-8.29,4.47-11.17s6.65-4.32,11.02-4.32
	c4.57,0,8.3,1.44,11.18,4.32s4.32,6.61,4.32,11.17v85.53h138.27v-85.53c0-4.56,1.49-8.29,4.47-11.17s6.66-4.32,11.03-4.32
	c4.57,0,8.24,1.44,11.02,4.32c2.78,2.88,4.18,6.61,4.18,11.17V398.51z M496.94,344.42c-5.57,14.21-13.52,26.52-23.84,36.95
	c-10.34,10.43-22.5,18.48-36.51,24.14c-14,5.66-29.55,8.49-46.63,8.49h-53.94c-4.38,0-8.05-1.49-11.03-4.46
	c-2.98-2.99-4.47-6.66-4.47-11.03V196.76c0-4.56,1.49-8.29,4.47-11.17s6.65-4.32,11.03-4.32h53.94c17.08,0,32.63,2.83,46.63,8.49
	c14.01,5.66,26.17,13.71,36.51,24.14c10.32,10.43,18.27,22.7,23.84,36.8c5.56,14.11,8.34,29.7,8.34,46.79
	C505.28,314.58,502.5,330.22,496.94,344.42z"/>
<path class="st1" d="M295.49,185.59c2.78,2.88,4.18,6.61,4.18,11.17v201.75c0,4.37-1.4,8.04-4.18,11.03
	c-2.78,2.97-6.45,4.46-11.02,4.46c-4.37,0-8.05-1.49-11.03-4.46c-2.98-2.99-4.47-6.66-4.47-11.03v-88.8H130.7v88.8
	c0,4.37-1.44,8.04-4.32,11.03c-2.88,2.97-6.61,4.46-11.18,4.46c-4.37,0-8.04-1.49-11.02-4.46c-2.98-2.99-4.47-6.66-4.47-11.03
	V196.76c0-4.56,1.49-8.29,4.47-11.17s6.65-4.32,11.02-4.32c4.57,0,8.3,1.44,11.18,4.32s4.32,6.61,4.32,11.17v85.53h138.27v-85.53
	c0-4.56,1.49-8.29,4.47-11.17s6.66-4.32,11.03-4.32C289.04,181.27,292.71,182.71,295.49,185.59z"/>
<path class="st1" d="M496.94,250.7c-5.57-14.1-13.52-26.37-23.84-36.8c-10.34-10.43-22.5-18.48-36.51-24.14
	c-14-5.66-29.55-8.49-46.63-8.49h-53.94c-4.38,0-8.05,1.44-11.03,4.32s-4.47,6.61-4.47,11.17v201.75c0,4.37,1.49,8.04,4.47,11.03
	c2.98,2.97,6.65,4.46,11.03,4.46h53.94c17.08,0,32.63-2.83,46.63-8.49c14.01-5.66,26.17-13.71,36.51-24.14
	c10.32-10.43,18.27-22.74,23.84-36.95c5.56-14.2,8.34-29.84,8.34-46.93C505.28,280.4,502.5,264.81,496.94,250.7z M464.46,343.53
	c-7.36,13.41-17.44,23.94-30.25,31.59c-12.82,7.65-27.57,11.47-44.25,11.47h-38.45V208.68h38.45c16.68,0,31.43,3.78,44.25,11.33
	c12.81,7.55,22.89,17.98,30.25,31.29c7.34,13.31,11.02,28.71,11.02,46.19C475.48,314.77,471.8,330.12,464.46,343.53z"/>
<path class="st0" d="M475.48,297.49c0,17.28-3.68,32.63-11.02,46.04c-7.36,13.41-17.44,23.94-30.25,31.59
	c-12.82,7.65-27.57,11.47-44.25,11.47h-38.45V208.68h38.45c16.68,0,31.43,3.78,44.25,11.33c12.81,7.55,22.89,17.98,30.25,31.29
	C471.8,264.61,475.48,280.01,475.48,297.49z"/>
<g class="st2">
	<path class="st3" d="M295.49,185.59c-2.78-2.88-6.45-4.32-11.02-4.32c-4.37,0-8.05,1.44-11.03,4.32s-4.47,6.61-4.47,11.17v85.53
		H130.7v-85.53c0-4.56-1.44-8.29-4.32-11.17s-6.61-4.32-11.18-4.32c-4.37,0-8.04,1.44-11.02,4.32s-4.47,6.61-4.47,11.17v201.75
		c0,4.37,1.49,8.04,4.47,11.03c2.98,2.97,6.65,4.46,11.02,4.46c4.57,0,8.3-1.49,11.18-4.46c2.88-2.99,4.32-6.66,4.32-11.03v-88.8
		h138.27v88.8c0,4.37,1.49,8.04,4.47,11.03c2.98,2.97,6.66,4.46,11.03,4.46c4.57,0,8.24-1.49,11.02-4.46
		c2.78-2.99,4.18-6.66,4.18-11.03V196.76C299.67,192.2,298.27,188.47,295.49,185.59z"/>
	<path class="st3" d="M496.94,250.7c-5.57-14.1-13.52-26.37-23.84-36.8c-10.34-10.43-22.5-18.48-36.51-24.14
		c-14-5.66-29.55-8.49-46.63-8.49h-53.94c-4.38,0-8.05,1.44-11.03,4.32s-4.47,6.61-4.47,11.17v201.75c0,4.37,1.49,8.04,4.47,11.03
		c2.98,2.97,6.65,4.46,11.03,4.46h53.94c17.08,0,32.63-2.83,46.63-8.49c14.01-5.66,26.17-13.71,36.51-24.14
		c10.32-10.43,18.27-22.74,23.84-36.95c5.56-14.2,8.34-29.84,8.34-46.93C505.28,280.4,502.5,264.81,496.94,250.7z M464.46,343.53
		c-7.36,13.41-17.44,23.94-30.25,31.59c-12.82,7.65-27.57,11.47-44.25,11.47h-38.45V208.68h38.45c16.68,0,31.43,3.78,44.25,11.33
		c12.81,7.55,22.89,17.98,30.25,31.29c7.34,13.31,11.02,28.71,11.02,46.19C475.48,314.77,471.8,330.12,464.46,343.53z"/>
	<path class="st4" d="M475.48,297.49c0,17.28-3.68,32.63-11.02,46.04c-7.36,13.41-17.44,23.94-30.25,31.59
		c-12.82,7.65-27.57,11.47-44.25,11.47h-38.45V208.68h38.45c16.68,0,31.43,3.78,44.25,11.33c12.81,7.55,22.89,17.98,30.25,31.29
		C471.8,264.61,475.48,280.01,475.48,297.49z"/>
</g>
</svg>
