<svg width="20" height="13" viewBox="0 0 20 13" fill="none" xmlns="http://www.w3.org/2000/svg">
<path d="M11.5731 8.26644C12.4861 9.17953 12.4861 10.6599 11.573 11.573C10.66 12.4861 9.17956 12.4861 8.26647 11.573L1.65332 4.95986C0.740234 4.04678 0.740235 2.56637 1.65332 1.65329C2.56641 0.740204 4.04681 0.740204 4.9599 1.65329L11.5731 8.26644Z" fill="white"/>
<path d="M11.6264 11.6505C10.7015 12.5516 9.2212 12.5323 8.32011 11.6073C7.41902 10.6824 7.43834 9.20214 8.36326 8.30105L15.0622 1.77476C15.9871 0.873674 17.4674 0.892997 18.3685 1.81792C19.2695 2.74285 19.2502 4.22312 18.3253 5.12421L11.6264 11.6505Z" fill="white"/>
</svg>
